<svg width="70" height="94" viewBox="0 0 70 94" fill="none" xmlns="http://www.w3.org/2000/svg">
<path d="M0 39.545C0 32.0643 6.06429 26 13.545 26H14.349C18.7638 26 22.8327 23.6103 24.983 19.7546L25.2474 19.2805C29.8577 11.0137 41.8112 11.192 46.173 19.5925V19.5925C48.2172 23.5294 52.2838 26 56.7198 26H57.2476C64.2905 26 70 31.7095 70 38.7524V77C70 86.3888 62.3888 94 53 94H17C7.61116 94 0 86.3888 0 77V39.545Z" fill="#A78888"/>
<path d="M22.7344 77.5937H48.2656C50.2251 77.5914 52.1036 76.7758 53.4891 75.3258C54.8747 73.8758 55.654 71.9099 55.6562 69.8593C55.6562 69.6729 55.5855 69.494 55.4595 69.3622C55.3335 69.2303 55.1626 69.1562 54.9844 69.1562H48.8219C48.9296 68.838 48.9627 68.4975 48.9185 68.1631C48.8743 67.8288 48.754 67.5104 48.5679 67.2348C48.3817 66.9591 48.1351 66.7343 47.8487 66.5791C47.5622 66.4239 47.2444 66.3429 46.9219 66.3429C46.5993 66.3429 46.2815 66.4239 45.9951 66.5791C45.7087 66.7343 45.462 66.9591 45.2759 67.2348C45.0897 67.5104 44.9695 67.8288 44.9253 68.1631C44.8811 68.4975 44.9142 68.838 45.0218 69.1562H35.9759C36.1852 68.4216 36.2275 67.646 36.0997 66.8912C35.9718 66.1365 35.6773 65.4234 35.2395 64.8088C34.8018 64.1942 34.2329 63.6952 33.5782 63.3513C32.9236 63.0075 32.2012 62.8285 31.4688 62.8285C30.7363 62.8285 30.0139 63.0075 29.3593 63.3513C28.7046 63.6952 28.1357 64.1942 27.698 64.8088C27.2602 65.4234 26.9657 66.1365 26.8378 66.8912C26.71 67.646 26.7523 68.4216 26.9616 69.1562H16.0156C15.8374 69.1562 15.6665 69.2303 15.5405 69.3622C15.4145 69.494 15.3438 69.6729 15.3438 69.8593C15.346 71.9099 16.1253 73.8758 17.5109 75.3258C18.8964 76.7758 20.7749 77.5914 22.7344 77.5937V77.5937ZM46.25 68.4531C46.25 68.314 46.2894 68.1781 46.3632 68.0625C46.4371 67.9468 46.542 67.8567 46.6648 67.8035C46.7875 67.7503 46.9226 67.7363 47.053 67.7635C47.1833 67.7906 47.303 67.8576 47.397 67.9559C47.4909 68.0542 47.5549 68.1795 47.5808 68.3159C47.6068 68.4523 47.5935 68.5937 47.5426 68.7222C47.4918 68.8506 47.4056 68.9605 47.2951 69.0377C47.1847 69.115 47.0548 69.1562 46.9219 69.1562C46.7437 69.156 46.573 69.0819 46.447 68.95C46.321 68.8182 46.2502 68.6395 46.25 68.4531ZM33.7951 69.1562C33.9175 68.9361 34.0105 68.6996 34.0716 68.4531H34.7603C34.713 68.6947 34.6416 68.9303 34.5471 69.1562H33.7951ZM28.7812 67.0468H28.177C28.263 66.6063 28.4295 66.1872 28.6674 65.8127L29.1545 66.3224C29.0254 66.5503 28.9279 66.7962 28.8649 67.0528C28.8372 67.049 28.8092 67.047 28.7812 67.0468V67.0468ZM34.7605 67.0468H34.0712C34.0081 66.7924 33.9111 66.5485 33.783 66.3224L34.2701 65.8127C34.5081 66.1872 34.6748 66.6062 34.7609 67.0468H34.7605ZM32.8328 65.328C32.6168 65.194 32.3838 65.0925 32.1406 65.0265V64.3051C32.5616 64.3951 32.962 64.5694 33.3199 64.8183L32.8328 65.328ZM30.7969 65.0265C30.5537 65.0925 30.3207 65.194 30.1047 65.328L29.6176 64.8183C29.9755 64.5694 30.3759 64.3951 30.7969 64.3051V65.0265ZM30.125 67.75C30.125 67.4718 30.2038 67.1999 30.3515 66.9687C30.4991 66.7374 30.709 66.5572 30.9545 66.4508C31.2001 66.3443 31.4702 66.3165 31.7309 66.3707C31.9916 66.425 32.231 66.5589 32.4189 66.7556C32.6069 66.9523 32.7348 67.2028 32.7867 67.4756C32.8385 67.7484 32.8119 68.0312 32.7102 68.2881C32.6085 68.5451 32.4363 68.7647 32.2153 68.9192C31.9943 69.0737 31.7345 69.1562 31.4688 69.1562C31.1125 69.1558 30.771 69.0075 30.519 68.7438C30.2671 68.4802 30.1254 68.1228 30.125 67.75V67.75ZM28.1775 68.4531H28.7812C28.8093 68.4529 28.8374 68.4509 28.8652 68.4471C28.9262 68.6957 29.0196 68.9343 29.1428 69.1562H28.3906C28.2962 68.9303 28.2247 68.6947 28.1775 68.4531V68.4531ZM54.2755 70.5625C54.1083 72.1087 53.4034 73.5365 52.2951 74.5738C51.1868 75.6111 49.7525 76.1855 48.2656 76.1875H22.7344C21.2475 76.1855 19.8132 75.6111 18.7049 74.5738C17.5966 73.5365 16.8917 72.1087 16.7245 70.5625H54.2755Z" fill="black"/>
<path d="M21.3906 73.375H27.4375C27.6157 73.375 27.7866 73.3009 27.9126 73.1691C28.0386 73.0372 28.1094 72.8584 28.1094 72.6719C28.1094 72.4854 28.0386 72.3066 27.9126 72.1747C27.7866 72.0428 27.6157 71.9688 27.4375 71.9688H21.3906C21.2124 71.9688 21.0415 72.0428 20.9155 72.1747C20.7895 72.3066 20.7188 72.4854 20.7188 72.6719C20.7188 72.8584 20.7895 73.0372 20.9155 73.1691C21.0415 73.3009 21.2124 73.375 21.3906 73.375V73.375Z" fill="black"/>
<path d="M30.125 73.375H31.4688C31.6469 73.375 31.8178 73.3009 31.9438 73.1691C32.0698 73.0372 32.1406 72.8584 32.1406 72.6719C32.1406 72.4854 32.0698 72.3066 31.9438 72.1747C31.8178 72.0428 31.6469 71.9688 31.4688 71.9688H30.125C29.9468 71.9688 29.7759 72.0428 29.6499 72.1747C29.5239 72.3066 29.4531 72.4854 29.4531 72.6719C29.4531 72.8584 29.5239 73.0372 29.6499 73.1691C29.7759 73.3009 29.9468 73.375 30.125 73.375Z" fill="black"/>
<path d="M44.8607 53.4414C44.1804 54.3536 43.7437 55.3715 43.6325 56.2865C43.246 56.6356 42.9228 57.0549 42.6787 57.5242C41.986 58.8419 41.9031 60.1086 42.4344 60.99C42.4241 61.0109 42.4109 61.03 42.395 61.0467C42.3889 61.0531 42.383 61.0595 42.3772 61.0661L39.0436 64.8317C38.7618 65.1449 38.6074 65.5604 38.6129 65.9906C38.6184 66.4207 38.7834 66.8318 39.073 67.137C39.3626 67.4423 39.7542 67.6179 40.1651 67.6267C40.5761 67.6356 40.9743 67.477 41.2756 67.1845L44.7047 63.896C44.7119 63.8891 44.719 63.882 44.7259 63.8748C44.7534 63.8468 44.787 63.8261 44.8237 63.8143C44.8605 63.8026 44.8994 63.8003 44.9372 63.8075C45 63.8185 45.0641 63.8279 45.129 63.8358C46.0228 64.4882 47.3949 64.4646 48.6311 63.7531C49.0795 63.4975 49.4801 63.1593 49.8137 62.7549C50.6881 62.639 51.6607 62.1818 52.5324 61.4695C53.8417 60.3996 54.6236 59.0062 54.5937 57.8624C54.8404 57.5941 55.0445 57.2862 55.1984 56.9504C55.5084 56.2848 55.6003 55.5308 55.4602 54.805C55.861 53.205 55.6428 51.8685 54.8392 51.0275C54.0355 50.1864 52.7584 49.9579 51.2294 50.3771C50.5359 50.2304 49.8155 50.3266 49.1794 50.651C48.8586 50.8121 48.5644 51.0257 48.308 51.2838C47.2148 51.2533 45.8831 52.0709 44.8607 53.4414ZM48.4082 52.7078C48.5318 52.7394 48.6613 52.7337 48.7819 52.6913C48.9024 52.6489 49.009 52.5715 49.0892 52.4683C49.2715 52.2362 49.5005 52.0489 49.7597 51.9198C50.1629 51.7106 50.625 51.6614 51.0602 51.7813C51.1803 51.8163 51.3073 51.8156 51.4271 51.7793C52.542 51.4414 53.4162 51.5277 53.8886 52.0221C54.3609 52.5165 54.4433 53.4312 54.1205 54.598C54.0859 54.7233 54.0852 54.8562 54.1186 54.9819C54.2332 55.4374 54.1861 55.9209 53.9862 56.3429C53.8628 56.6142 53.6839 56.8538 53.4622 57.0446C53.3635 57.1286 53.2896 57.2401 53.249 57.3662C53.2085 57.4924 53.203 57.628 53.2332 57.7573C53.3639 58.3168 52.8281 59.4439 51.7053 60.3615C50.9543 60.9751 50.1091 61.3546 49.4444 61.377C49.3409 61.3805 49.2396 61.4089 49.1483 61.4601C49.0571 61.5113 48.9784 61.5839 48.9184 61.6722C48.6711 62.0246 48.3516 62.3147 47.9834 62.5212C47.3082 62.9099 46.3227 63.078 45.8262 62.624C45.7139 62.5213 45.572 62.4606 45.4231 62.4516C45.3352 62.4463 45.2477 62.4362 45.1609 62.4211C44.9145 62.3772 44.6617 62.3948 44.4231 62.4725C44.1845 62.5503 43.9668 62.6859 43.7878 62.8684L40.3646 66.1504C40.3184 66.1942 40.2578 66.2175 40.1955 66.2156C40.1332 66.2137 40.074 66.1866 40.0303 66.14C39.9867 66.0934 39.9619 66.031 39.9613 65.9657C39.9606 65.9005 39.9841 65.8375 40.0268 65.79L43.3555 62.03C43.5112 61.8621 43.6315 61.662 43.7088 61.4425C43.786 61.223 43.8183 60.989 43.8038 60.7556C43.7949 60.6 43.737 60.452 43.639 60.3346C43.3019 59.931 43.3871 59.0936 43.856 58.2015C44.0533 57.8161 44.3305 57.4817 44.6673 57.223C44.7517 57.1602 44.821 57.0778 44.8699 56.9823C44.9188 56.8869 44.946 56.7809 44.9493 56.6726C44.9707 55.9769 45.3334 55.0922 45.9198 54.3064C46.7966 53.1315 47.8733 52.5706 48.4084 52.7076L48.4082 52.7078Z" fill="black"/>
<path d="M45.905 59.0604L44.7081 60.3131C44.6457 60.3784 44.5962 60.4559 44.5624 60.5412C44.5287 60.6265 44.5113 60.7179 44.5113 60.8103C44.5112 60.9026 44.5286 60.994 44.5624 61.0794C44.5961 61.1647 44.6456 61.2422 44.708 61.3075C44.7704 61.3728 44.8445 61.4246 44.926 61.46C45.0075 61.4953 45.0949 61.5135 45.1831 61.5135C45.2713 61.5135 45.3587 61.4954 45.4402 61.46C45.5218 61.4247 45.5958 61.3729 45.6582 61.3076L46.8552 60.0551L48.6721 60.266C48.697 60.2689 48.722 60.2704 48.7471 60.2704C48.9189 60.2703 49.0842 60.2014 49.209 60.0778C49.3337 59.9542 49.4085 59.7852 49.4179 59.6057C49.4273 59.4262 49.3706 59.2497 49.2595 59.1125C49.1484 58.9754 48.9913 58.888 48.8205 58.8683L48.072 58.7813L48.7295 58.0931L50.7524 58.5165C50.8389 58.5346 50.928 58.5347 51.0146 58.5168C51.1011 58.4989 51.1835 58.4633 51.2569 58.4121C51.3303 58.3608 51.3934 58.295 51.4424 58.2183C51.4915 58.1415 51.5257 58.0554 51.543 57.9649C51.5603 57.8743 51.5604 57.7811 51.5433 57.6905C51.5262 57.5999 51.4922 57.5138 51.4432 57.4369C51.3943 57.3601 51.3314 57.2941 51.258 57.2427C51.1847 57.1914 51.1025 57.1556 51.0159 57.1375L49.8716 56.898L50.6209 56.1138L51.802 56.3991C51.9757 56.4411 52.1581 56.4091 52.3092 56.3103C52.4603 56.2115 52.5678 56.0539 52.6079 55.8722C52.648 55.6905 52.6174 55.4996 52.523 55.3414C52.4286 55.1833 52.278 55.0709 52.1044 55.0289L51.7415 54.941L52.7847 53.8492C52.9095 53.7171 52.9792 53.5387 52.9786 53.3529C52.9781 53.1672 52.9073 52.9892 52.7818 52.8579C52.6563 52.7266 52.4862 52.6525 52.3088 52.652C52.1313 52.6514 51.9608 52.7244 51.8345 52.8549L50.7914 53.9466L50.7074 53.5668C50.6673 53.3851 50.5599 53.2276 50.4087 53.1287C50.2576 53.0299 50.0752 52.998 49.9016 53.0399C49.7279 53.0819 49.5773 53.1943 49.4829 53.3525C49.3885 53.5106 49.358 53.7015 49.3981 53.8833L49.6707 55.1194L48.9213 55.9036L48.6924 54.7059C48.6756 54.6149 48.6417 54.5283 48.5927 54.4511C48.5437 54.3739 48.4807 54.3076 48.4071 54.256C48.3336 54.2043 48.251 54.1684 48.1642 54.1503C48.0773 54.1322 47.9879 54.1323 47.9011 54.1504C47.8143 54.1686 47.7317 54.2046 47.6582 54.2562C47.5847 54.3079 47.5217 54.3743 47.4728 54.4515C47.4239 54.5288 47.39 54.6154 47.3732 54.7064C47.3564 54.7974 47.3569 54.8909 47.3748 54.9817L47.7794 57.0986L47.1218 57.7868L47.0386 57.0035C47.0163 56.8204 46.9261 56.6539 46.7876 56.5399C46.649 56.4258 46.4731 56.3733 46.2979 56.3937C46.1227 56.414 45.9622 56.5057 45.8509 56.6488C45.7397 56.7919 45.6866 56.9751 45.7033 57.1588L45.905 59.0604Z" fill="black"/>
<path d="M18.2094 65.9903C18.4289 66.391 18.7221 66.7422 19.0721 67.0235C19.4221 67.3048 19.8219 67.5107 20.2485 67.6293C20.5342 67.7099 20.8289 67.7508 21.1248 67.751C21.9393 67.7494 22.7256 67.4383 23.3373 66.8755C23.949 66.3127 24.3445 65.5365 24.4503 64.6914C24.5562 63.8462 24.3651 62.9896 23.9126 62.2809C23.4601 61.5722 22.777 61.0595 21.9904 60.8384C21.798 60.7847 21.6015 60.7487 21.4031 60.7308C21.5088 60.3818 21.5523 60.0153 21.5315 59.6498L21.5221 59.4841C21.5115 59.2979 21.4307 59.1238 21.2974 59C21.1641 58.8762 20.9893 58.8129 20.8114 58.824C20.6336 58.8351 20.4672 58.9197 20.3489 59.0591C20.2306 59.1986 20.1701 59.3815 20.1807 59.5677L20.1902 59.7334C20.2101 60.0733 20.1238 60.4106 19.9441 60.6944L19.3518 59.6195C19.3077 59.5395 19.249 59.4693 19.179 59.4131C19.109 59.3568 19.0292 59.3156 18.9439 59.2916C18.8587 59.2677 18.7698 59.2615 18.6824 59.2735C18.5949 59.2855 18.5105 59.3155 18.4341 59.3616C18.3576 59.4077 18.2906 59.4691 18.2369 59.5424C18.1831 59.6156 18.1437 59.6992 18.1208 59.7884C18.0979 59.8775 18.092 59.9706 18.1035 60.0621C18.115 60.1537 18.1436 60.242 18.1876 60.322L18.7801 61.397C18.4553 61.4175 18.133 61.3268 17.862 61.1385L17.7298 61.0465C17.6561 60.9956 17.5737 60.9604 17.487 60.9429C17.4004 60.9253 17.3113 60.9258 17.2249 60.9443C17.1384 60.9628 17.0563 60.9989 16.9832 61.0506C16.9101 61.1023 16.8474 61.1686 16.7988 61.2456C16.7502 61.3226 16.7165 61.409 16.6997 61.4996C16.683 61.5903 16.6834 61.6835 16.7011 61.774C16.7188 61.8644 16.7533 61.9504 16.8027 62.0269C16.8521 62.1034 16.9154 62.169 16.989 62.2199L17.1213 62.3113C17.4137 62.5141 17.7392 62.6588 18.0817 62.7383C17.8508 63.2509 17.7418 63.8144 17.764 64.3807C17.7863 64.947 17.9391 65.4992 18.2094 65.9903V65.9903ZM22.8655 63.1796C22.9985 63.4196 23.085 63.6847 23.12 63.9598C23.155 64.2348 23.1378 64.5144 23.0694 64.7824C23.001 65.0505 22.8827 65.3018 22.7214 65.522C22.56 65.7421 22.3587 65.9268 22.1291 66.0654C21.8994 66.2041 21.6458 66.2939 21.3829 66.3298C21.12 66.3657 20.853 66.347 20.597 66.2747C20.341 66.2025 20.1012 66.078 19.8912 65.9086C19.6812 65.7392 19.5053 65.5281 19.3734 65.2873V65.2873C19.1971 64.9668 19.1043 64.6034 19.1044 64.2336C19.1045 63.8637 19.1975 63.5004 19.3739 63.18C19.5504 62.8596 19.8043 62.5933 20.11 62.4078C20.4158 62.2224 20.7628 62.1242 21.1162 62.1233C21.2938 62.1234 21.4705 62.148 21.642 62.1963C21.8979 62.2674 22.1379 62.3909 22.3479 62.5597C22.5579 62.7285 22.7338 62.9392 22.8655 63.1796V63.1796Z" fill="black"/>
<path d="M42.3918 44.0514C42.3037 44.0483 42.2158 44.0634 42.1331 44.0959C42.0505 44.1283 41.9749 44.1775 41.9104 44.2406C41.846 44.3037 41.794 44.3794 41.7576 44.4635C41.7211 44.5476 41.7008 44.6384 41.6979 44.7307L41.6926 44.8966C41.6809 45.2634 41.7338 45.6293 41.8487 45.9761C41.3102 46.0382 40.794 46.2359 40.3443 46.5521C39.8946 46.8683 39.5248 47.2938 39.2663 47.7921V47.7921C38.9904 48.3235 38.8502 48.9204 38.8592 49.5251C38.8682 50.1298 39.0261 50.7218 39.3176 51.244C39.6092 51.7662 40.0245 52.2008 40.5235 52.5059C41.0224 52.811 41.5882 52.9762 42.166 52.9856C42.7438 52.995 43.3142 52.8482 43.822 52.5595C44.3298 52.2708 44.7578 51.8498 45.0647 51.3374C45.3716 50.8249 45.5469 50.2383 45.5739 49.6342C45.6008 49.03 45.4783 48.4289 45.2183 47.8888C45.5587 47.8004 45.8807 47.6473 46.168 47.4369L46.298 47.3418C46.4432 47.2346 46.5419 47.0715 46.5725 46.8884C46.603 46.7052 46.563 46.5168 46.4612 46.3644C46.3594 46.212 46.204 46.1081 46.0291 46.0753C45.8542 46.0425 45.674 46.0835 45.528 46.1894L45.3981 46.2845C45.1318 46.48 44.8119 46.5795 44.4868 46.5678L45.0521 45.477C45.0951 45.3958 45.1222 45.3065 45.132 45.2142C45.1418 45.122 45.134 45.0286 45.1091 44.9395C45.0842 44.8504 45.0427 44.7673 44.987 44.6951C44.9313 44.6229 44.8625 44.5629 44.7845 44.5186C44.7066 44.4744 44.621 44.4467 44.5328 44.4372C44.4445 44.4278 44.3554 44.4367 44.2704 44.4635C44.1855 44.4902 44.1065 44.5343 44.0379 44.5932C43.9694 44.6521 43.9126 44.7246 43.871 44.8066L43.3056 45.8975C43.1189 45.6187 43.0241 45.2838 43.0357 44.9435L43.041 44.7777C43.0439 44.6854 43.0295 44.5934 42.9985 44.5069C42.9674 44.4205 42.9204 44.3413 42.8602 44.2738C42.7999 44.2064 42.7275 44.152 42.6472 44.1138C42.5668 44.0757 42.48 44.0544 42.3918 44.0514V44.0514ZM43.9908 50.474C43.7359 50.9657 43.3048 51.3314 42.7923 51.4905C42.2798 51.6497 41.7279 51.5892 41.258 51.3225C40.7881 51.0557 40.4386 50.6046 40.2866 50.0682C40.1345 49.5319 40.1923 48.9543 40.4472 48.4625V48.4625C40.7025 47.9713 41.1335 47.606 41.6458 47.4469C42.158 47.2878 42.7097 47.3478 43.1797 47.6137V47.6137C43.6493 47.8809 43.9984 48.3321 44.1505 48.8683C44.3026 49.4045 44.2451 49.982 43.9908 50.474V50.474Z" fill="black"/>
<path d="M17.5835 43.9967C17.8793 44.2737 18.2076 44.5103 18.5604 44.7008C18.8382 45.7171 19.3861 46.6299 20.1404 47.333C20.4071 47.5827 20.6969 47.8041 21.0054 47.9938C21.4119 49.2429 22.1814 50.3277 23.2062 51.0965C24.231 51.8653 25.4598 52.2795 26.7207 52.2812C26.835 52.2812 26.9498 52.2779 27.065 52.2712C28.4353 52.195 29.7392 51.6295 30.7594 50.6691L33.0416 52.8052C33.1073 52.8674 33.1841 52.9153 33.2675 52.9463C33.3509 52.9772 33.4394 52.9906 33.5278 52.9857C33.6162 52.9808 33.7028 52.9577 33.7826 52.9176C33.8624 52.8775 33.9339 52.8214 33.9929 52.7523C34.052 52.6833 34.0973 52.6027 34.1265 52.5152C34.1557 52.4277 34.168 52.3351 34.1629 52.2426C34.1577 52.1501 34.1351 52.0596 34.0964 51.9763C34.0577 51.893 34.0037 51.8184 33.9374 51.7571L31.6551 49.6209C32.2342 48.7693 32.6027 47.7808 32.7276 46.7437C32.8526 45.7067 32.73 44.6535 32.371 43.6781C32.012 42.7027 31.4276 41.8356 30.6702 41.1543C29.9128 40.473 29.0058 39.9986 28.0304 39.7737C27.816 39.4739 27.5736 39.1972 27.3068 38.9475C26.5552 38.2411 25.6274 37.7726 24.6313 37.5966C24.2608 37.0153 23.7762 36.5232 23.2099 36.1531C22.6435 35.7829 22.0084 35.5433 21.3467 35.45C20.685 35.3567 20.0118 35.4119 19.3721 35.6119C18.7324 35.812 18.1406 36.1523 17.6363 36.6103C17.132 37.0682 16.7267 37.6333 16.4472 38.2679C16.1678 38.9025 16.0207 39.5922 16.0157 40.2909C16.0107 40.9896 16.1479 41.6815 16.4182 42.3204C16.6885 42.9593 17.0858 43.5307 17.5835 43.9965V43.9967ZM18.2149 37.9844C18.5082 37.6393 18.864 37.3586 19.2617 37.1583C19.6593 36.9581 20.091 36.8424 20.5317 36.8179C20.5958 36.8142 20.6595 36.8124 20.7231 36.8124C21.3166 36.8132 21.8993 36.9785 22.4119 37.2915C22.9245 37.6046 23.3488 38.0542 23.6414 38.5946C23.6941 38.6917 23.7681 38.7744 23.8573 38.8357C23.9466 38.897 24.0485 38.9351 24.1547 38.947C24.9937 39.0389 25.7835 39.4061 26.4111 39.996C26.6653 40.2335 26.8897 40.5037 27.0791 40.8002C27.1298 40.8797 27.1955 40.9475 27.2721 40.9995C27.3488 41.0516 27.4347 41.0867 27.5248 41.1028C28.2962 41.2415 29.0224 41.5795 29.6375 42.0861C30.2526 42.5928 30.7371 43.2521 31.0471 44.0043C31.3571 44.7565 31.4828 45.5778 31.4128 46.3937C31.3429 47.2096 31.0794 47.9943 30.6463 48.6767L28.9469 47.0858L29.2382 44.9486C29.2507 44.8572 29.2458 44.7641 29.2239 44.6747C29.202 44.5852 29.1635 44.5012 29.1105 44.4273C29.0576 44.3534 28.9912 44.2912 28.9153 44.2442C28.8394 44.1972 28.7553 44.1662 28.668 44.1532C28.5806 44.1402 28.4917 44.1452 28.4062 44.1682C28.3207 44.1911 28.2404 44.2314 28.1698 44.2868C28.0273 44.3988 27.9331 44.5654 27.9079 44.75L27.7431 45.9591L26.4429 44.7421L26.7342 42.6049C26.7467 42.5135 26.7418 42.4204 26.7199 42.331C26.698 42.2415 26.6595 42.1575 26.6065 42.0836C26.5536 42.0098 26.4872 41.9475 26.4113 41.9005C26.3354 41.8535 26.2513 41.8225 26.164 41.8095C26.0766 41.7965 25.9877 41.8016 25.9022 41.8245C25.8167 41.8474 25.7364 41.8877 25.6658 41.9432C25.5233 42.0551 25.4291 42.2217 25.4039 42.4063L25.239 43.6152L23.9387 42.3986L24.2301 40.2614C24.2425 40.17 24.2377 40.0769 24.2158 39.9875C24.1938 39.898 24.1553 39.814 24.1024 39.7401C24.0494 39.6662 23.9831 39.604 23.9071 39.557C23.8312 39.5099 23.7472 39.479 23.6598 39.466C23.5725 39.4529 23.4835 39.458 23.398 39.481C23.3126 39.5039 23.2323 39.5442 23.1617 39.5996C23.0911 39.6551 23.0316 39.7245 22.9867 39.8039C22.9418 39.8834 22.9122 39.9714 22.8998 40.0628L22.735 41.272L21.1667 39.8042C21.0334 39.6831 20.86 39.6217 20.6838 39.6333C20.5077 39.6449 20.343 39.7286 20.2253 39.8663C20.1077 40.0039 20.0465 40.1845 20.055 40.369C20.0635 40.5535 20.1411 40.7271 20.2709 40.8522L21.8392 42.32L20.7093 42.6258C20.6236 42.6487 20.543 42.689 20.4722 42.7445C20.4014 42.8 20.3418 42.8696 20.2968 42.9492C20.2517 43.0289 20.2222 43.1171 20.2098 43.2087C20.1974 43.3004 20.2024 43.3937 20.2246 43.4833C20.2467 43.5729 20.2855 43.6571 20.3389 43.731C20.3922 43.8048 20.4589 43.867 20.5352 43.9138C20.6115 43.9606 20.6959 43.9912 20.7835 44.0038C20.8711 44.0164 20.9603 44.0108 21.0458 43.9873L23.043 43.4467L24.3431 44.6637L23.2131 44.9696C23.1272 44.9922 23.0463 45.0324 22.9753 45.0878C22.9043 45.1433 22.8444 45.2129 22.7992 45.2926C22.7539 45.3723 22.7242 45.4607 22.7117 45.5525C22.6992 45.6443 22.7042 45.7378 22.7264 45.8276C22.7486 45.9174 22.7876 46.0017 22.841 46.0756C22.8945 46.1496 22.9614 46.2118 23.0379 46.2586C23.1144 46.3054 23.199 46.3359 23.2868 46.3483C23.3746 46.3607 23.4639 46.3549 23.5495 46.331L25.5468 45.7904L26.8472 47.0078L25.7173 47.3137C25.6313 47.3363 25.5505 47.3764 25.4795 47.4319C25.4084 47.4873 25.3486 47.5569 25.3033 47.6366C25.2581 47.7164 25.2284 47.8047 25.2159 47.8965C25.2034 47.9883 25.2084 48.0818 25.2306 48.1716C25.2528 48.2614 25.2917 48.3457 25.3452 48.4197C25.3986 48.4936 25.4655 48.5558 25.542 48.6026C25.6185 48.6494 25.7031 48.6799 25.791 48.6923C25.8788 48.7048 25.9681 48.6989 26.0537 48.6751L28.0509 48.1345L29.7504 49.7253C29.1506 50.2517 28.4347 50.6131 27.6676 50.7767C26.9005 50.9403 26.1066 50.9009 25.3578 50.6621C24.6089 50.4233 23.9289 49.9926 23.3794 49.4091C22.8299 48.8256 22.4283 48.1078 22.211 47.3208C22.1857 47.2289 22.1428 47.1434 22.0849 47.0695C22.0269 46.9956 21.9552 46.9348 21.8741 46.8909C21.5715 46.7269 21.29 46.5235 21.0361 46.2856C20.4061 45.6982 19.9696 44.9173 19.7891 44.0547C19.7661 43.9456 19.7185 43.8438 19.6504 43.7578C19.5823 43.6718 19.4956 43.604 19.3974 43.56C18.9071 43.3405 18.4738 43.0019 18.1334 42.5723C17.7929 42.1428 17.555 41.6345 17.4395 41.0897C17.3239 40.5448 17.334 39.979 17.4688 39.439C17.6036 38.8991 17.8594 38.4004 18.2149 37.9844V37.9844Z" fill="black"/>
<path d="M34.5561 42.3733L37.9103 44.7138C38.0586 44.8172 38.24 44.8547 38.4148 44.8182C38.5895 44.7816 38.7431 44.6739 38.842 44.5188L39.8703 42.9047C40.5188 42.9039 41.1499 42.6848 41.6703 42.2799C42.1908 41.8749 42.573 41.3056 42.7606 40.6559C42.9482 40.0062 42.9312 39.3107 42.7122 38.6719C42.4931 38.0331 42.0836 37.4849 41.544 37.1083L39.8672 35.9378C39.3275 35.5615 38.6865 35.3767 38.0388 35.4108C37.3911 35.4449 36.771 35.696 36.2702 36.1271C35.7693 36.5582 35.4141 37.1464 35.2571 37.8049C35.1001 38.4634 35.1496 39.1573 35.3983 39.7841L34.3697 41.3982C34.3208 41.475 34.2868 41.5612 34.2697 41.6518C34.2525 41.7424 34.2526 41.8356 34.2699 41.9261C34.2873 42.0167 34.3214 42.1028 34.3705 42.1795C34.4196 42.2562 34.4827 42.322 34.5561 42.3733V42.3733ZM36.7313 40.2257C36.8018 40.1151 36.8408 39.9858 36.8439 39.8529C36.847 39.7199 36.814 39.5888 36.7488 39.4747C36.5524 39.1324 36.4733 38.7303 36.5244 38.3346C36.5755 37.9389 36.7538 37.5733 37.03 37.2978C37.3061 37.0223 37.6637 36.8534 38.0438 36.8189C38.4239 36.7844 38.8039 36.8863 39.1212 37.1079L40.7983 38.278C41.169 38.5366 41.4263 38.9387 41.5137 39.3958C41.601 39.853 41.5113 40.3277 41.2642 40.7156C41.0871 40.9918 40.8392 41.21 40.5489 41.3453C40.2586 41.4805 39.9378 41.5273 39.6232 41.4803C39.4975 41.4611 39.3691 41.4797 39.253 41.5338C39.137 41.588 39.0379 41.6754 38.9675 41.7861L38.0963 43.1535L35.8605 41.5937L36.7313 40.2257Z" fill="black"/>
<path d="M32.3394 60.3639C32.3811 60.5452 32.4898 60.7017 32.6418 60.7991L36.0801 63.0015C36.1553 63.0497 36.2389 63.0819 36.3261 63.0963C36.4132 63.1107 36.5023 63.107 36.588 63.0854C36.6738 63.0638 36.7547 63.0247 36.8261 62.9704C36.8974 62.9161 36.9579 62.8476 37.0039 62.7688L37.9718 61.1142C38.4681 61.0919 38.9518 60.9426 39.3803 60.6795C39.8088 60.4164 40.1692 60.0474 40.43 59.6048C40.6373 59.2504 40.7758 58.8567 40.8377 58.4463C40.8996 58.0358 40.8837 57.6166 40.7908 57.2127C40.6979 56.8087 40.5299 56.4278 40.2963 56.0917C40.0627 55.7557 39.7682 55.4711 39.4296 55.2542L37.7104 54.1533C37.3717 53.9364 36.9956 53.7914 36.6034 53.7266C36.2112 53.6618 35.8106 53.6785 35.4246 53.7757C35.0385 53.8729 34.6746 54.0487 34.3535 54.2932C34.0324 54.5376 33.7604 54.8458 33.5532 55.2002C33.2951 55.6446 33.1451 56.1483 33.1161 56.6674C33.0872 57.1865 33.1802 57.7051 33.3871 58.1779L32.4195 59.8325C32.3265 59.9915 32.2977 60.1827 32.3394 60.3639ZM34.7363 58.5654C34.8026 58.452 34.8368 58.3212 34.835 58.1882C34.8332 58.0553 34.7954 57.9256 34.7259 57.8142C34.553 57.5352 34.4588 57.2108 34.4541 56.8783C34.4494 56.5458 34.5344 56.2187 34.6994 55.9345C34.8145 55.7376 34.9656 55.5663 35.144 55.4305C35.3224 55.2947 35.5246 55.1971 35.7391 55.143C35.9535 55.089 36.1761 55.0798 36.3939 55.1158C36.6118 55.1517 36.8208 55.2323 37.009 55.3528L38.7282 56.454C38.9163 56.5745 39.08 56.7326 39.2097 56.9193C39.3395 57.106 39.4328 57.3176 39.4845 57.542C39.5361 57.7665 39.5449 57.9993 39.5105 58.2274C39.4761 58.4554 39.3992 58.6741 39.284 58.871C39.1173 59.1541 38.8776 59.3822 38.5925 59.5291C38.3074 59.676 37.9885 59.7357 37.6724 59.7014C37.5461 59.6875 37.4186 59.7113 37.3046 59.7701C37.1907 59.8289 37.0949 59.9203 37.0285 60.0336L36.2088 61.4353L33.9166 59.9675L34.7363 58.5654Z" fill="black"/>
<path d="M36.1719 49.4687C36.5705 49.4687 36.9602 49.345 37.2917 49.1133C37.6232 48.8815 37.8815 48.552 38.0341 48.1666C38.1866 47.7812 38.2265 47.357 38.1488 46.9479C38.071 46.5387 37.879 46.1628 37.5971 45.8678C37.3152 45.5728 36.9561 45.3719 36.5651 45.2905C36.1741 45.2091 35.7688 45.2509 35.4005 45.4106C35.0322 45.5702 34.7174 45.8406 34.4959 46.1875C34.2745 46.5344 34.1562 46.9422 34.1562 47.3594C34.1569 47.9186 34.3694 48.4548 34.7473 48.8502C35.1251 49.2457 35.6375 49.4681 36.1719 49.4687ZM36.1719 46.6563C36.3048 46.6563 36.4347 46.6975 36.5451 46.7747C36.6556 46.852 36.7418 46.9618 36.7926 47.0903C36.8435 47.2188 36.8568 47.3602 36.8308 47.4965C36.8049 47.6329 36.7409 47.7582 36.647 47.8566C36.553 47.9549 36.4333 48.0219 36.303 48.049C36.1726 48.0761 36.0375 48.0622 35.9148 48.009C35.792 47.9558 35.6871 47.8656 35.6132 47.75C35.5394 47.6344 35.5 47.4984 35.5 47.3594C35.5002 47.173 35.5711 46.9942 35.697 46.8624C35.823 46.7306 35.9937 46.6565 36.1719 46.6563Z" fill="black"/>
<path d="M18.5604 55.3974C19.2244 55.8972 20.0214 56.1668 20.8394 56.1683C20.8621 56.1683 20.8849 56.1683 20.9076 56.1676L22.0744 56.1458C22.1788 56.1439 22.2812 56.1166 22.3737 56.066C22.4662 56.0155 22.5462 55.9431 22.6073 55.8546C22.6684 55.7661 22.709 55.664 22.7259 55.5562C22.7427 55.4484 22.7353 55.3381 22.7043 55.2338L22.3573 54.0677C22.1056 53.2276 21.6021 52.4946 20.9212 51.9775C20.6533 51.7746 20.3418 51.6439 20.0141 51.597C19.6865 51.5501 19.3529 51.5884 19.0428 51.7086L19.0358 51.7113C18.694 51.8448 18.3933 52.0729 18.1657 52.3713C17.938 52.6696 17.792 53.027 17.7432 53.4054C17.6944 53.7837 17.7447 54.1688 17.8886 54.5196C18.0325 54.8704 18.2647 55.1738 18.5604 55.3974H18.5604ZM19.501 53.0305L19.5058 53.0286C19.6094 52.9881 19.7209 52.975 19.8305 52.9905C19.9401 53.006 20.0443 53.0496 20.1339 53.1175C20.5797 53.4559 20.9094 53.9356 21.0742 54.4855L21.1548 54.7565L20.8836 54.7616C20.3331 54.7703 19.7945 54.5935 19.3473 54.2574C19.249 54.1832 19.1718 54.0824 19.1238 53.966C19.0758 53.8495 19.0588 53.7216 19.0746 53.5959C19.0904 53.4701 19.1384 53.3512 19.2135 53.2516C19.2886 53.1521 19.3881 53.0757 19.5013 53.0305H19.501Z" fill="black"/>
<path d="M27.4375 62.125C28.2348 62.125 29.0142 61.8776 29.6771 61.414C30.3401 60.9504 30.8568 60.2916 31.1619 59.5207C31.467 58.7498 31.5468 57.9016 31.3913 57.0832C31.2357 56.2649 30.8518 55.5131 30.288 54.9231C29.7242 54.3331 29.0059 53.9313 28.224 53.7686C27.442 53.6058 26.6314 53.6893 25.8948 54.0086C25.1582 54.3279 24.5286 54.8687 24.0856 55.5624C23.6427 56.2562 23.4062 57.0719 23.4062 57.9062C23.4075 59.0247 23.8326 60.097 24.5883 60.8879C25.3441 61.6788 26.3687 62.1237 27.4375 62.125ZM27.4375 55.0938C27.969 55.0938 28.4886 55.2587 28.9306 55.5677C29.3726 55.8768 29.717 56.316 29.9204 56.83C30.1238 57.3439 30.1771 57.9094 30.0734 58.4549C29.9697 59.0005 29.7137 59.5016 29.3378 59.895C28.962 60.2883 28.4831 60.5562 27.9618 60.6647C27.4405 60.7732 26.9001 60.7175 26.409 60.5047C25.918 60.2918 25.4982 59.9313 25.2029 59.4688C24.9076 59.0063 24.75 58.4625 24.75 57.9062C24.7508 57.1606 25.0342 56.4457 25.538 55.9184C26.0419 55.3912 26.725 55.0946 27.4375 55.0938V55.0938Z" fill="black"/>
<path d="M26.0942 59.3125C26.1984 59.3124 26.3011 59.2869 26.3942 59.2381L27.4375 58.6923L28.4807 59.2382C28.6399 59.3199 28.8235 59.3325 28.9915 59.2731C29.1594 59.2138 29.2982 59.0873 29.3775 58.9214C29.4568 58.7555 29.4702 58.5635 29.4148 58.3872C29.3594 58.211 29.2397 58.0648 29.0817 57.9805L28.1094 57.4717V56.5C28.1094 56.3135 28.0386 56.1347 27.9126 56.0028C27.7866 55.871 27.6157 55.7969 27.4375 55.7969C27.2593 55.7969 27.0884 55.871 26.9624 56.0028C26.8364 56.1347 26.7656 56.3135 26.7656 56.5V57.4717L25.7932 57.9805C25.6578 58.0514 25.5493 58.168 25.4852 58.3115C25.421 58.4551 25.4051 58.617 25.4399 58.7712C25.4748 58.9254 25.5584 59.0627 25.6771 59.161C25.7959 59.2592 25.9429 59.3126 26.0942 59.3125V59.3125Z" fill="black"/>
</svg>
